<svg width="450" height="450" viewBox="0 0 450 450" fill="none" xmlns="http://www.w3.org/2000/svg">
<path d="M25 225C25 130.719 25 83.5786 54.2894 54.2894C83.5786 25 130.719 25 225 25C319.28 25 366.422 25 395.71 54.2894C425 83.5786 425 130.719 425 225C425 319.28 425 366.422 395.71 395.71C366.422 425 319.28 425 225 425C130.719 425 83.5786 425 54.2894 395.71C25 366.422 25 319.28 25 225Z" stroke="#1E1E1E" stroke-width="50"/>
<path d="M325 238.334C325 323.666 253.888 345 218.334 345C187.222 345 125 323.666 125 238.334C125 201.218 146.258 177.655 164.119 165.795C172.284 160.373 182.44 163.839 182.968 173.626C184.123 195.042 200.628 212.244 213.41 195.022C225.108 179.26 230.882 157.855 230.882 145C230.882 126.065 250.05 114.032 265.016 125.633C294.186 148.246 325 186.116 325 238.334Z" stroke="#B34000" stroke-width="50"/>
</svg>
